<svg width="512" height="512" viewBox="0 0 512 512" fill="none" xmlns="http://www.w3.org/2000/svg">
<rect width="512" height="512" rx="100" transform="matrix(-1 0 0 1 512 0)" fill="#D97757"/>
<path fill-rule="evenodd" clip-rule="evenodd" d="M153.6 76.8C125.322 76.8 102.4 99.723 102.4 128V332.8H63.9998C56.9316 332.8 51.1998 338.532 51.1998 345.6V384C51.1998 412.278 74.122 435.2 102.4 435.2H332.8C361.077 435.2 384 412.278 384 384V102.4H409.6C423.738 102.4 435.2 113.862 435.2 128C435.2 134.565 432.736 140.537 428.675 145.075C423.971 150.343 424.411 158.439 429.675 163.15C434.942 167.864 443.035 167.393 447.75 162.125C455.849 153.075 460.8 141.104 460.8 128C460.8 99.723 437.877 76.8 409.6 76.8H153.6ZM358.4 384C358.4 398.139 346.938 409.6 332.8 409.6C318.661 409.6 307.2 398.139 307.2 384V345.6C307.2 338.532 301.469 332.8 294.4 332.8H128V128C128 113.862 139.461 102.4 153.6 102.4H358.4V384ZM281.6 384C281.6 393.334 284.136 402.063 288.5 409.6H102.4C88.2609 409.6 76.7998 398.139 76.7998 384V358.4H281.6V384Z" fill="#FAF9F5" stroke="#FAF9F5" stroke-width="14"/>
</svg>
