<svg width="134" height="134" viewBox="0 0 134 134" fill="none" xmlns="http://www.w3.org/2000/svg">
<mask id="mask0_223_4" style="mask-type:alpha" maskUnits="userSpaceOnUse" x="0" y="0" width="134" height="134">
<rect width="134" height="134" fill="#D9D9D9"/>
</mask>
<g mask="url(#mask0_223_4)">
<path d="M130.621 68.5774C130.621 63.5312 130.1 58.6803 129.221 54.0898H68.1125V80.1349H103.045C101.58 88.3716 96.99 95.3713 90.023 100.027V116.468H111.185C123.491 105.138 130.621 88.4042 130.621 68.5774Z" fill="#4285F4"/>
<path d="M68.1125 132.225C85.693 132.225 100.408 126.398 111.217 116.468L90.0555 100.027C84.2279 103.901 76.8051 106.18 68.1125 106.18C51.2158 106.18 36.891 94.7528 31.8122 79.3862H9.99951V96.3155C20.678 117.607 42.6535 132.225 68.1125 132.225Z" fill="#34A853"/>
<path d="M31.8123 79.3862C30.5101 75.512 29.7939 71.3773 29.7939 67.1124C29.7939 62.8476 30.5101 58.7129 31.8123 54.8387V37.9094H9.99961C5.53939 46.6996 3 56.5968 3 67.1124C3 77.6281 5.53939 87.5253 9.96705 96.3155L31.8123 79.3862Z" fill="#FABB05"/>
<path d="M68.1124 28.0451C77.6514 28.0451 86.1812 31.3332 92.9203 37.7468L111.673 18.9944C100.408 8.44615 85.6602 2 68.1124 2C42.6533 2 20.6778 16.6178 9.9668 37.9096L31.7795 54.8389C36.8909 39.4723 51.2157 28.0451 68.1124 28.0451Z" fill="#E94235"/>
</g>
</svg>
