<svg width="512" height="512" viewBox="0 0 512 512" fill="none" xmlns="http://www.w3.org/2000/svg">
<path fill-rule="evenodd" clip-rule="evenodd" d="M141 55C109.243 55 83.5 80.7436 83.5 112.5V342.5H40.375C32.4371 342.5 26 348.937 26 356.875V400C26 431.757 51.7428 457.5 83.5 457.5H342.25C374.006 457.5 399.75 431.757 399.75 400V83.75H428.5C444.378 83.75 457.25 96.6219 457.25 112.5C457.25 119.873 454.483 126.58 449.922 131.676C444.639 137.592 445.134 146.684 451.045 151.975C456.961 157.27 466.05 156.74 471.344 150.824C480.44 140.661 486 127.217 486 112.5C486 80.7436 460.256 55 428.5 55H141ZM371 400C371 415.879 358.128 428.75 342.25 428.75C326.372 428.75 313.5 415.879 313.5 400V356.875C313.5 348.937 307.064 342.5 299.125 342.5H112.25V112.5C112.25 96.6219 125.121 83.75 141 83.75H371V400ZM284.75 400C284.75 410.482 287.598 420.286 292.499 428.75H83.5C67.6214 428.75 54.75 415.879 54.75 400V371.25H284.75V400Z" fill="#FAF9F5" stroke="#FAF9F5" stroke-width="16"/>
</svg>
